<?xml version="1.0" encoding="UTF-8" standalone="no"?>
<!-- Generator: Adobe Illustrator 16.0.1, SVG Export Plug-In . SVG Version: 6.00 Build 0)  -->

<svg
   xmlns:dc="http://purl.org/dc/elements/1.1/"
   xmlns:cc="http://creativecommons.org/ns#"
   xmlns:rdf="http://www.w3.org/1999/02/22-rdf-syntax-ns#"
   xmlns:svg="http://www.w3.org/2000/svg"
   xmlns="http://www.w3.org/2000/svg"
   xmlns:sodipodi="http://sodipodi.sourceforge.net/DTD/sodipodi-0.dtd"
   xmlns:inkscape="http://www.inkscape.org/namespaces/inkscape"
   version="1.1"
   id="Layer_1"
   x="0px"
   y="0px"
   width="792px"
   height="306px"
   viewBox="0 0 792 306"
   enable-background="new 0 0 792 306"
   xml:space="preserve"
   sodipodi:docname="fedora_coreos-wordmark-horiz-color_paths.svg"
   inkscape:version="0.92.2 2405546, 2018-03-11"><metadata
   id="metadata31"><rdf:RDF><cc:Work
       rdf:about=""><dc:format>image/svg+xml</dc:format><dc:type
         rdf:resource="http://purl.org/dc/dcmitype/StillImage" /><dc:title></dc:title></cc:Work></rdf:RDF></metadata><defs
   id="defs29">
	
	

		
		
		
	<clipPath
   clipPathUnits="userSpaceOnUse"
   id="clipPath192327"><rect
     style="opacity:0.70499998;fill:#3c6eb4;fill-opacity:1;fill-rule:evenodd;stroke:none;stroke-width:9.38834667;stroke-linecap:round;stroke-linejoin:round;stroke-miterlimit:4;stroke-dasharray:none;stroke-opacity:1;paint-order:stroke fill markers"
     id="rect192329"
     width="238"
     height="243"
     x="186"
     y="1750.8667" /></clipPath></defs><sodipodi:namedview
   pagecolor="#ffffff"
   bordercolor="#666666"
   borderopacity="1"
   objecttolerance="10"
   gridtolerance="10"
   guidetolerance="10"
   inkscape:pageopacity="0"
   inkscape:pageshadow="2"
   inkscape:window-width="1920"
   inkscape:window-height="1016"
   id="namedview27"
   showgrid="false"
   inkscape:zoom="0.5"
   inkscape:cx="-6.56024"
   inkscape:cy="21"
   inkscape:window-x="0"
   inkscape:window-y="27"
   inkscape:window-maximized="1"
   inkscape:current-layer="g192414" />
<path
   style="fill:#53a3da"
   inkscape:connector-curvature="0"
   id="path95995"
   d="M 136.168,45.527 C 76.898,45.527 28.689,93.739 28.689,153 c 0,59.265 48.209,107.474 107.479,107.474 59.252,0 107.465,-48.209 107.465,-107.474 0,-59.261 -48.213,-107.473 -107.465,-107.473 z" /><path
   d="M 136.168,45.527 C 76.898,45.527 28.689,93.739 28.689,153 c 0,59.265 48.209,107.474 107.479,107.474 59.252,0 107.465,-48.209 107.465,-107.474 0,-59.261 -48.213,-107.473 -107.465,-107.473 z"
   id="path2"
   inkscape:connector-curvature="0"
   style="fill:#3c6eb4;fill-opacity:1" /><path
   d="m 136.168,55.389 c -17.283,0 -31.941,27.645 -37.235,66.069 -0.169,1.236 -0.333,2.487 -0.478,3.746 -0.723,6.047 -1.213,12.335 -1.458,18.808 -0.117,2.962 -0.175,5.956 -0.175,8.988 0,3.029 0.058,6.029 0.175,8.985 0.245,6.472 0.735,12.764 1.458,18.811 8.104,1.049 16.769,1.761 25.807,2.099 3.907,0.146 7.872,0.233 11.907,0.233 4.023,0 8,-0.088 11.895,-0.233 9.049,-0.338 17.708,-1.05 25.819,-2.099 0.892,-0.114 1.77,-0.239 2.659,-0.368 33.754,-4.74 57.235,-15.232 57.235,-27.428 -10e-4,-53.912 -43.706,-97.611 -97.609,-97.611 z"
   id="path4"
   inkscape:connector-curvature="0"
   style="fill:#de4284;fill-opacity:1" /><path
   d="m 176.541,125.569 c -0.979,-1.428 -2.029,-2.796 -3.148,-4.11 -8.956,-10.557 -22.297,-17.265 -37.224,-17.265 -4.839,0 -9.148,7.407 -11.907,18.909 -1.096,4.586 -1.947,9.819 -2.495,15.498 -0.432,4.551 -0.665,9.391 -0.665,14.399 0,5.008 0.233,9.849 0.665,14.396 4.554,0.432 9.387,0.664 14.402,0.664 5.009,0 9.842,-0.232 14.396,-0.664 10.011,-0.95 18.653,-2.875 24.775,-5.411 6.046,-2.501 9.624,-5.615 9.624,-8.985 -0.001,-10.168 -3.106,-19.612 -8.423,-27.431 z"
   id="path6"
   inkscape:connector-curvature="0"
   style="fill:#ffffff" />
<g
   id="g192414"
   transform="matrix(2.8160664,0,0,2.8160664,-532.7797,392.228)"><g
   aria-label="COREOS"
   style="font-style:normal;font-variant:normal;font-weight:normal;font-stretch:normal;font-size:37.60481262px;line-height:1.25;font-family:'open sans';-inkscape-font-specification:'open sans, Normal';font-variant-ligatures:normal;font-variant-caps:normal;font-variant-numeric:normal;font-feature-settings:normal;text-align:center;letter-spacing:0px;word-spacing:0px;writing-mode:lr-tb;text-anchor:middle;fill:#294172;fill-opacity:1;stroke:none;stroke-width:2.35030079"
   id="text192394"><path
     d="m 306.27728,-67.399442 q -3.98611,0 -7.22012,-1.729821 -3.19641,-1.767426 -5.03905,-4.851021 -1.80503,-3.083595 -1.80503,-6.95689 0,-3.873296 1.84264,-6.956891 1.84263,-3.083594 5.03904,-4.813416 3.23402,-1.767426 7.22013,-1.767426 3.23401,0 5.90395,1.128145 2.66994,1.128144 4.51258,3.271618 l -3.1588,2.970781 q -2.85797,-3.083595 -7.0321,-3.083595 -2.70755,0 -4.85103,1.203354 -2.14347,1.165749 -3.34682,3.271619 -1.20336,2.105869 -1.20336,4.775811 0,2.669941 1.20336,4.775811 1.20335,2.105869 3.34682,3.309223 2.14348,1.16575 4.85103,1.16575 4.17413,0 7.0321,-3.1212 l 3.1588,3.008385 q -1.84264,2.143475 -4.55018,3.271619 -2.66994,1.128144 -5.90396,1.128144 z"
     style="font-style:normal;font-variant:normal;font-weight:600;font-stretch:normal;font-family:Montserrat;-inkscape-font-specification:'Montserrat Semi-Bold';fill:#294172;fill-opacity:1;stroke-width:2.35030079"
     id="path95136" /><path
     d="m 333.12477,-67.399442 q -4.02372,0 -7.25773,-1.729821 -3.23402,-1.767426 -5.07665,-4.851021 -1.84264,-3.121199 -1.84264,-6.95689 0,-3.835691 1.84264,-6.919286 1.84263,-3.121199 5.07665,-4.851021 3.23401,-1.767426 7.25773,-1.767426 4.02371,0 7.25773,1.767426 3.23401,1.729822 5.07665,4.813416 1.84263,3.083595 1.84263,6.956891 0,3.873295 -1.84263,6.95689 -1.84264,3.083595 -5.07665,4.851021 -3.23402,1.729821 -7.25773,1.729821 z m 0,-4.286948 q 2.63233,0 4.7382,-1.16575 2.10587,-1.203354 3.30923,-3.309223 1.20335,-2.143474 1.20335,-4.775811 0,-2.632337 -1.20335,-4.738207 -1.20336,-2.143474 -3.30923,-3.309223 -2.10587,-1.203354 -4.7382,-1.203354 -2.63234,0 -4.73821,1.203354 -2.10587,1.165749 -3.30922,3.309223 -1.20336,2.10587 -1.20336,4.738207 0,2.632337 1.20336,4.775811 1.20335,2.105869 3.30922,3.309223 2.10587,1.16575 4.73821,1.16575 z"
     style="font-style:normal;font-variant:normal;font-weight:600;font-stretch:normal;font-family:Montserrat;-inkscape-font-specification:'Montserrat Semi-Bold';fill:#294172;fill-opacity:1;stroke-width:2.35030079"
     id="path95138" /><path
     d="m 369.70661,-67.77549 -5.37749,-7.708986 q -0.33844,0.0376 -1.01533,0.0376 h -5.94156 v 7.671382 h -4.88863 v -26.323369 h 10.83019 q 3.42204,0 5.94156,1.128145 2.55713,1.128144 3.9109,3.234014 1.35377,2.105869 1.35377,5.00144 0,2.97078 -1.46658,5.114254 -1.42899,2.143475 -4.13653,3.196409 l 6.05437,8.649107 z m -0.11282,-16.95977 q 0,-2.519523 -1.65461,-3.873296 -1.65461,-1.353773 -4.85102,-1.353773 h -5.71593 v 10.491742 h 5.71593 q 3.19641,0 4.85102,-1.353773 1.65461,-1.391378 1.65461,-3.9109 z"
     style="font-style:normal;font-variant:normal;font-weight:600;font-stretch:normal;font-family:Montserrat;-inkscape-font-specification:'Montserrat Semi-Bold';fill:#294172;fill-opacity:1;stroke-width:2.35030079"
     id="path95140" /><path
     d="m 399.69527,-71.874414 v 4.098924 h -19.74253 v -26.323369 h 19.21606 v 4.098925 h -14.32743 v 6.844076 h 12.71043 v 4.023715 h -12.71043 v 7.257729 z"
     style="font-style:normal;font-variant:normal;font-weight:600;font-stretch:normal;font-family:Montserrat;-inkscape-font-specification:'Montserrat Semi-Bold';fill:#294172;fill-opacity:1;stroke-width:2.35030079"
     id="path95142" /><path
     d="m 417.44181,-67.474651 q -3.98611,0 -7.18252,-1.729822 -3.19641,-1.767426 -5.03905,-4.851021 -1.80503,-3.083594 -1.80503,-6.88168 0,-3.798086 1.80503,-6.881681 1.84264,-3.083595 5.03905,-4.813416 3.19641,-1.767426 7.18252,-1.767426 3.9485,0 7.14491,1.767426 3.19641,1.729821 5.00144,4.813416 1.80503,3.04599 1.80503,6.881681 0,3.835691 -1.80503,6.919285 -1.80503,3.04599 -5.00144,4.813416 -3.19641,1.729822 -7.14491,1.729822 z m 0,-3.346829 q 2.89557,0 5.18946,-1.316168 2.3315,-1.316169 3.64767,-3.610062 1.35377,-2.331498 1.35377,-5.189464 0,-2.857966 -1.35377,-5.15186 -1.31617,-2.331498 -3.64767,-3.647666 -2.29389,-1.316169 -5.18946,-1.316169 -2.89557,0 -5.26468,1.316169 -2.33149,1.316168 -3.68527,3.647666 -1.31617,2.293894 -1.31617,5.15186 0,2.857966 1.31617,5.189464 1.35378,2.293893 3.68527,3.610062 2.36911,1.316168 5.26468,1.316168 z"
     style="font-style:normal;font-variant:normal;font-weight:500;font-stretch:normal;font-family:Montserrat;-inkscape-font-specification:'Montserrat Medium'"
     id="path95144" /><path
     d="m 444.81224,-67.474651 q -2.97078,0 -5.75354,-0.902516 -2.74515,-0.94012 -4.32455,-2.406708 l 1.39138,-2.933175 q 1.50419,1.353773 3.83569,2.218684 2.3691,0.827306 4.85102,0.827306 3.27162,0 4.88862,-1.09054 1.61701,-1.128144 1.61701,-2.97078 0,-1.353773 -0.90252,-2.181079 -0.86491,-0.864911 -2.18107,-1.316169 -1.27857,-0.451257 -3.64767,-1.01533 -2.97078,-0.714491 -4.81342,-1.428983 -1.80503,-0.714491 -3.1212,-2.181079 -1.27856,-1.504192 -1.27856,-4.023715 0,-2.105869 1.09054,-3.798086 1.12814,-1.692216 3.38443,-2.707546 2.25629,-1.01533 5.60312,-1.01533 2.3315,0 4.58779,0.601677 2.25629,0.601677 3.87329,1.729821 l -1.24096,3.008385 q -1.65461,-1.052935 -3.53485,-1.579402 -1.88024,-0.564072 -3.68527,-0.564072 -3.19641,0 -4.81342,1.165749 -1.5794,1.165749 -1.5794,3.008385 0,1.353773 0.90252,2.218684 0.90251,0.827306 2.21868,1.316169 1.35377,0.451257 3.64767,0.977725 2.97078,0.714491 4.77581,1.428983 1.80503,0.714491 3.08359,2.181079 1.31617,1.466587 1.31617,3.948505 0,2.068265 -1.12814,3.798086 -1.12815,1.692217 -3.42204,2.707547 -2.29389,0.977725 -5.64072,0.977725 z"
     style="font-style:normal;font-variant:normal;font-weight:500;font-stretch:normal;font-family:Montserrat;-inkscape-font-specification:'Montserrat Medium'"
     id="path95146" /></g>


<g
   id="g192412"
   transform="matrix(0.08555491,0,0,0.08555491,240.36009,-86.729961)"><g
     transform="translate(517.94331,-446.95434)"
     id="g192410"><path
       style="font-style:normal;font-variant:normal;font-weight:bold;font-stretch:expanded;font-size:11.72808552px;line-height:89.99999762%;font-family:Comfortaa;-inkscape-font-specification:'Comfortaa Bold Expanded';text-align:start;writing-mode:lr-tb;text-anchor:start;fill:#3c6eb4;fill-opacity:1;stroke:none;stroke-width:1.89414549"
       id="path192396"
       d="m 729.19615,299.30853 v 8.7427 c 0,0.58574 -0.35434,0.94008 -1.06299,1.06301 h -0.076 c -0.6002,0 -0.96901,-0.37241 -1.10639,-1.11724 v -13.8625 c 0.0868,-0.80266 0.42664,-1.20399 1.01962,-1.20401 h 0.16271 c 0.6002,2e-5 1.00153,0.42666 1.20401,1.27995 l 4.97878,11.12903 c 0.0652,-0.25309 1.157,-2.7949 3.27581,-7.62545 l 2.03924,-4.39303 c 0.24584,-0.26032 0.51341,-0.39048 0.80268,-0.3905 h 0.16271 c 0.59294,2e-5 0.93283,0.40135 1.01962,1.20401 v 13.8625 c -0.13733,0.74483 -0.50621,1.11724 -1.10641,1.11724 h -0.076 c -0.70869,-0.12293 -1.06303,-0.47727 -1.06301,-1.06301 v -8.75353 c -2.69006,6.08879 -4.09656,9.23081 -4.21949,9.42604 -0.29649,0.26033 -0.58575,0.3905 -0.86777,0.3905 -0.63635,0 -1.16064,-0.64359 -1.57282,-1.93076 l -3.51444,-7.87495 m -14.76272,-6.42143 h 10.15281 c 0.68697,0.13012 1.03045,0.48452 1.03045,1.06301 v 0.16271 c 0,0.59298 -0.40135,0.93284 -1.20401,1.01961 h -3.77477 v 12.9188 c 0,0.58574 -0.36157,0.94008 -1.0847,1.06301 h -0.0542 c -0.60022,0 -0.96901,-0.37241 -1.10639,-1.11724 v -12.86457 h -3.86154 c -0.74483,-0.14452 -1.11726,-0.53511 -1.11726,-1.17147 0.15911,-0.71589 0.49897,-1.07385 1.01964,-1.07386"
       inkscape:connector-curvature="0" /><path
       style="fill:#3c6eb4;fill-opacity:1"
       id="path192398"
       d="m 264.95202,271.6315 c 0,0 0,0 -67.46881,0 1.09192,14.6258 12.88236,25.54501 28.60199,25.54501 11.1351,0 20.74362,-4.5855 28.38515,-12.0073 1.52946,-1.53425 3.27576,-1.96987 5.23988,-1.96987 2.62042,0 5.24179,1.31261 6.98714,3.49645 1.09288,1.5285 1.74823,3.27576 1.74823,5.02015 0,2.40261 -1.09288,5.02111 -3.05892,6.9881 -9.17098,9.82345 -24.67281,16.37498 -39.95874,16.37498 -27.72884,0 -49.99904,-22.2702 -49.99904,-50.00096 0,-27.72788 21.61581,-49.99904 49.34466,-49.99904 27.51199,0 48.03588,21.39704 48.03588,49.5615 0.002,4.15084 -3.70946,6.99098 -7.85742,6.99098 z m -40.1775,-38.64805 c -14.62867,0 -24.67185,9.6066 -26.85474,23.57609 32.96872,0 53.71138,0 53.71138,0 -1.96507,-13.31414 -12.44578,-23.57609 -26.85664,-23.57609 z"
       inkscape:connector-curvature="0" /><path
       style="fill:#3c6eb4;fill-opacity:1"
       id="path192400"
       d="m 457.74132,315.07998 c -27.72885,0 -49.99809,-22.2702 -49.99809,-50.00096 0,-27.72788 22.26924,-49.99904 49.99809,-49.99904 27.73172,0 50.00096,22.27116 50.00096,49.99904 9.5e-4,27.73076 -22.26828,50.00096 -50.00096,50.00096 z m 0,-81.00653 c -17.46594,0 -28.82173,13.97621 -28.82173,31.00461 0,17.0284 11.35579,31.00365 28.82173,31.00365 17.46785,0 28.8246,-13.97525 28.8246,-31.00365 0,-17.0284 -11.35675,-31.00461 -28.8246,-31.00461 z"
       inkscape:connector-curvature="0" /><path
       style="fill:#3c6eb4;fill-opacity:1"
       id="path192402"
       d="m 579.93667,215.07902 c -14.64978,0 -24.33986,4.33314 -32.89484,15.20917 l -0.78967,-5.05853 v 0 c -0.66398,-5.28113 -5.16888,-9.35905 -10.62272,-9.35905 -5.91729,0 -10.7158,4.79179 -10.7158,10.71196 0,0.008 0,0.0163 0,0.024 v 0 0.01 0 76.89119 c 0,5.89523 4.80234,10.69949 10.69853,10.69949 5.89522,0 10.69948,-4.80522 10.69948,-10.69949 v -41.26559 c 0,-18.77662 16.37497,-28.16734 33.62502,-28.16734 5.24084,0 9.38688,-4.36672 9.38688,-9.60756 0,-5.24083 -4.14604,-9.38783 -9.38688,-9.38783 z"
       inkscape:connector-curvature="0" /><path
       style="fill:#3c6eb4;fill-opacity:1"
       id="path192404"
       d="m 692.81904,265.07806 c 0.21972,-26.85473 -18.99732,-49.99904 -50.00192,-49.99904 -27.72981,0 -50.21973,22.27116 -50.21973,49.99904 0,27.73076 21.83458,50.00096 48.25561,50.00096 13.18557,0 25.05278,-6.78757 30.34734,-13.87833 l 2.60699,6.61677 v 0 c 1.39896,3.71713 4.98465,6.36346 9.19017,6.36346 5.42027,0 9.81482,-4.39071 9.82154,-9.80714 v 0 -25.64575 0 z m -50.00192,31.00461 c -17.46882,0 -28.82173,-13.97525 -28.82173,-31.00365 0,-17.0284 11.35291,-31.00461 28.82173,-31.00461 17.46689,0 28.82172,13.97621 28.82172,31.00461 0,17.0284 -11.35483,31.00365 -28.82172,31.00365 z"
       inkscape:connector-curvature="0" /><path
       style="fill:#3c6eb4;fill-opacity:1"
       id="path192406"
       d="m 390.57091,175.5559 c 0,-5.89331 -4.80234,-10.47976 -10.69661,-10.47976 -5.89522,0 -10.7014,4.58645 -10.7014,10.47976 v 56.33467 c -5.45672,-10.04318 -17.24717,-16.81155 -31.22241,-16.81155 -28.38419,0 -47.37958,21.39704 -47.37958,49.99904 0,28.60487 19.65074,50.00096 47.37958,50.00096 12.36903,0 23.09346,-5.10459 29.51641,-13.97812 l 2.37574,6.02475 c 1.47189,4.1374 5.41739,7.09653 10.05373,7.09653 5.86836,0 10.6755,-4.7774 10.6755,-10.66974 0,-0.0163 0,-0.0297 0,-0.0461 v 0 -127.95048 h -9.6e-4 z m -50.00096,120.52677 c -17.46594,0 -28.602,-13.97525 -28.602,-31.00365 0,-17.0284 11.1351,-31.00461 28.602,-31.00461 17.46881,0 28.60295,13.31894 28.60295,31.00461 0,17.68183 -11.13414,31.00365 -28.60295,31.00365 z"
       inkscape:connector-curvature="0" /><path
       style="fill:#3c6eb4;fill-opacity:1"
       id="path192408"
       d="m 167.85454,165.72285 c -1.95164,-0.28881 -3.9407,-0.43466 -5.91633,-0.43466 -22.11092,0 -40.10075,17.99079 -40.10075,40.10267 v 12.52639 h -13.10209 c -4.8033,0 -8.73537,3.9311 -8.73537,8.73249 0,4.80617 3.93207,9.64977 8.73537,9.64977 h 13.10113 v 67.20879 c 0,5.89523 4.80426,10.69949 10.69756,10.69949 5.89714,0 10.70044,-4.80522 10.70044,-10.69949 v -67.20879 h 14.48571 c 4.80234,0 8.73249,-4.8436 8.73249,-9.64977 0,-4.80139 -3.92919,-8.73249 -8.73249,-8.73249 h -14.47899 v -12.52639 c 0,-10.30992 8.38707,-20.08636 18.69699,-20.08636 0.9288,0 1.86432,0.0691 2.78161,0.20438 5.84821,0.86548 11.28766,-1.78277 12.15506,-7.63193 0.86356,-5.84629 -3.1731,-11.2867 -9.02034,-12.1541 z"
       inkscape:connector-curvature="0" /></g></g></g></svg>